<svg width="1922" height="162" viewBox="0 0 1922 162" fill="none" xmlns="http://www.w3.org/2000/svg">
<path d="M1 161C16.0261 157.53 31.0522 154.061 145.729 133.624C260.405 113.187 474.276 75.8883 590.463 51.4693C706.649 27.0503 718.67 16.6413 723.36 10.4117C728.05 4.1821 725.045 2.44728 721.994 1.55358C716.175 -0.151148 705.83 1.961 690.697 9.57058C681.263 14.3146 673.562 27.1554 666.413 38.169C652.907 58.9769 648.093 75.5203 649.08 85.1407C649.564 89.8618 656.077 93.0263 669.175 93.7294C682.274 94.4326 703.31 92.264 737.688 85.075C772.066 77.886 819.148 65.7422 850.915 58.6189C882.682 51.4956 897.708 49.7608 911.96 48.8671C939.183 47.16 959.664 52.7441 974.797 61.7074C982.6 66.3294 991.932 69.3696 1005.09 72.8918C1018.25 76.414 1035.28 79.8837 1132.71 82.1048C1230.13 84.3259 1407.44 85.1933 1526.83 78.0503C1646.22 70.9073 1702.32 55.7275 1745.74 46.6065C1789.17 37.4855 1818.22 34.8833 1844.2 33.7596C1870.18 32.6359 1892.22 33.0696 1904.58 33.7267C1916.93 34.3839 1918.94 35.2513 1921 36.145" stroke="#FF8100" stroke-width="2" stroke-linecap="round"/>
</svg>
