<svg width="107" height="59" viewBox="0 0 107 59" fill="none" xmlns="http://www.w3.org/2000/svg">
<path d="M52.688 47.7339C50.9535 48.5537 49.219 49.3734 42.6177 49.6437C36.0164 49.9139 24.6009 49.6099 17.3499 48.7693C10.0989 47.9287 7.35823 46.5609 5.46659 45.3639C3.57496 44.167 2.61537 43.1824 2.12032 41.6635C1.62527 40.1447 1.62382 38.1214 2.39803 35.2748C3.17224 32.4282 4.72214 28.8195 7.45376 24.5755C10.1854 20.3315 14.0518 15.5615 23.8673 11.1311C33.6828 6.7006 49.3303 2.75425 61.6384 1.82985C73.9465 0.905444 82.4411 3.12257 89.1244 6.34336C95.8077 9.56416 100.422 13.7214 103.144 17.8044C105.865 21.8874 106.552 25.7701 102.748 30.6878C98.9434 35.6055 90.6258 41.4406 75.4634 46.1385C60.3011 50.8365 38.546 54.2206 27.453 55.9366C16.36 57.6526 16.5882 57.598 16.8234 57.5417" stroke="white" stroke-width="2" stroke-linecap="round"/>
</svg>
