<svg width="109" height="56" viewBox="0 0 109 56" fill="none" xmlns="http://www.w3.org/2000/svg">
<path d="M52.6399 47.6104C50.8313 48.3079 49.0228 49.0055 42.3516 48.7731C35.6804 48.5406 24.2015 47.3572 16.9583 45.9495C9.71507 44.5418 7.05546 42.9457 5.23854 41.5879C3.42162 40.2301 2.528 39.159 2.14212 37.5822C1.75625 36.0054 1.90521 33.9553 2.89687 31.1306C3.88854 28.3059 5.71839 24.7686 8.78611 20.6781C11.8538 16.5877 16.104 12.0514 26.3229 8.31535C36.5418 4.57928 52.6006 1.78093 65.0703 1.78823C77.5399 1.79553 85.9337 4.69328 92.428 8.46902C98.9223 12.2447 103.263 16.8107 105.701 21.1561C108.139 25.5015 108.543 29.4881 104.344 34.1788C100.146 38.8695 91.3316 44.1435 75.7056 47.7406C60.0797 51.3377 37.909 53.098 26.6048 53.9859C15.3005 54.8738 15.5346 54.836 15.7757 54.797" stroke="white" stroke-width="2" stroke-linecap="round"/>
</svg>
