<svg width="118" height="66" viewBox="0 0 118 66" fill="none" xmlns="http://www.w3.org/2000/svg">
<path d="M52.5173 58.1827C50.4215 58.5314 48.3258 58.8801 41.346 56.7081C34.3662 54.5361 22.5658 49.833 15.2967 46.0505C8.02759 42.268 5.64727 39.5489 4.09272 37.3616C2.53817 35.1743 1.88153 33.6013 1.89619 31.5485C1.91085 29.4956 2.61672 27.0106 4.41947 23.8088C6.22222 20.6069 9.10045 16.7635 13.4334 12.5882C17.7663 8.41288 23.4667 4.02206 35.2535 2.30468C47.0403 0.587293 64.7408 1.6764 77.9016 5.20968C91.0625 8.74296 99.1474 14.6874 104.992 21.1773C110.837 27.6672 114.197 34.5225 115.608 40.5683C117.018 46.6141 116.378 51.6427 110.691 56.2383C105.003 60.834 94.2876 64.8443 76.8304 64.8622C59.3732 64.8801 35.499 60.784 23.3287 58.6836C11.1585 56.5832 11.4157 56.6027 11.6806 56.6228" stroke="white" stroke-width="2" stroke-linecap="round"/>
</svg>
