<svg width="68" height="71" viewBox="0 0 68 71" fill="none" xmlns="http://www.w3.org/2000/svg">
<path d="M67.6684 45.2362C67.6981 49.0684 65.8154 52.6564 63.1102 55.3075C60.851 57.4902 58.1904 59.0849 55.3218 60.231C54.2566 59.3141 52.8743 58.756 51.3632 58.756C49.1683 58.756 47.246 59.9221 46.1758 61.6762C45.8191 62.2592 45.2295 62.6579 44.5557 62.7277C44.5458 62.7277 44.5359 62.7277 44.5309 62.7277C43.6986 62.8124 42.9059 62.3988 42.4699 61.6812C41.3997 59.9221 39.4724 58.751 37.2776 58.751C34.7508 58.751 32.5807 60.3008 31.6641 62.5034C29.5535 62.1695 27.4826 61.6562 25.4611 60.9735C24.0937 60.5151 22.6618 59.9719 21.4034 59.3888C20.794 59.0998 20.0558 58.6962 19.7536 58.4171C18.396 57.256 21.3737 57.2061 22.1763 57.1663C23.5289 57.1264 24.9855 57.1663 26.3827 57.1762C29.5089 57.2161 32.6303 57.3307 35.7565 57.3706C41.5979 57.4603 47.5779 57.0467 53.0378 54.7942C56.9072 53.1846 61.1879 50.1497 61.7081 45.7046C61.8667 44.1498 61.287 42.5851 60.1474 41.5236C58.0765 39.5901 55.0542 39.2363 52.2748 39.2711C46.5821 39.4256 41.0083 41.1498 35.9498 43.7362C32.9473 45.1913 28.6171 48.4056 25.2729 47.3641C22.1268 46.3176 21.3985 42.3508 20.9724 39.4057C20.6751 37.1383 20.472 34.8609 20.2787 32.5785C19.8229 27.3809 19.6545 22.1584 18.723 17.0206C17.9303 12.9392 16.444 8.17018 12.3764 6.37618C9.56221 5.15028 6.65888 5.80808 3.99337 7.13863C3.17588 7.53231 2.46739 7.90108 1.71431 8.21503C1.18914 8.41934 -0.00984791 8.91768 6.1046e-05 8.06055C0.0545603 7.36288 0.4856 6.65525 0.971139 5.87785C1.53595 5.02072 2.18499 4.20843 2.89843 3.46592C5.12299 1.0789 8.42763 -0.381213 11.6827 0.0872196C17.1921 0.889535 20.8535 6.06223 22.5826 11.0356C23.9104 14.788 24.4356 18.7548 24.817 22.7215C25.1787 26.459 25.3918 30.2214 25.7336 33.9639C25.9516 35.8825 26.1994 39.1565 28.3149 39.7346C30.1877 40.213 32.8532 38.6383 34.6517 37.8409C39.403 35.6134 44.5309 34.0885 49.7629 33.6699C52.5076 33.4656 55.3168 33.5353 57.9972 34.1782C63.3778 35.3792 67.6535 39.4755 67.6733 45.2262L67.6684 45.2362Z" fill="white"/>
<path d="M57.0716 65.7428C57.0716 68.6431 54.7331 71.0002 51.8447 71.0002C48.9562 71.0002 46.6177 68.648 46.6177 65.7428C46.6177 65.0501 46.7515 64.3873 46.9942 63.7843C47.7671 61.8508 49.6449 60.4854 51.8447 60.4854C53.1427 60.4854 54.3318 60.9638 55.2434 61.7511C56.3582 62.7129 57.0667 64.1481 57.0667 65.7428H57.0716Z" fill="white"/>
<path d="M42.4598 65.7428C42.4598 68.6431 40.1213 71.0002 37.2328 71.0002C34.3444 71.0002 32.0059 68.648 32.0059 65.7428C32.0059 65.0202 32.1495 64.3325 32.4121 63.7096C33.1999 61.8159 35.0628 60.4854 37.2328 60.4854C39.5169 60.4854 41.459 61.9604 42.1675 64.0135C42.3558 64.5567 42.4598 65.1348 42.4598 65.7428Z" fill="white"/>
</svg>
