<svg width="47" height="50" viewBox="0 0 47 50" fill="none" xmlns="http://www.w3.org/2000/svg">
<path d="M46.9966 31.4171C47.0172 34.0786 45.7096 36.5705 43.8309 38.4118C42.2618 39.9277 40.414 41.0352 38.4217 41.8312C37.6819 41.1944 36.7219 40.8068 35.6724 40.8068C34.148 40.8068 32.813 41.6167 32.0697 42.8349C31.822 43.2399 31.4125 43.5167 30.9445 43.5652C30.9376 43.5652 30.9308 43.5652 30.9273 43.5652C30.3492 43.624 29.7987 43.3368 29.4959 42.8384C28.7526 41.6167 27.4141 40.8033 25.8898 40.8033C24.1349 40.8033 22.6277 41.8797 21.9912 43.4094C20.5253 43.1776 19.087 42.8211 17.6831 42.3469C16.7334 42.0285 15.739 41.6513 14.865 41.2463C14.4417 41.0456 13.929 40.7653 13.7191 40.5714C12.7763 39.765 14.8443 39.7304 15.4017 39.7027C16.3411 39.675 17.3528 39.7027 18.3231 39.7096C20.4944 39.7373 22.6621 39.8169 24.8334 39.8446C28.8903 39.9069 33.0435 39.6197 36.8354 38.0553C39.5228 36.9374 42.4958 34.8297 42.8571 31.7425C42.9672 30.6626 42.5646 29.5759 41.7732 28.8387C40.3349 27.4958 38.2359 27.2501 36.3055 27.2743C32.3519 27.3816 28.4808 28.5791 24.9676 30.3754C22.8824 31.386 19.875 33.6183 17.5523 32.895C15.3673 32.1682 14.8615 29.4132 14.5656 27.3678C14.3591 25.793 14.2181 24.2113 14.0839 22.6262C13.7673 19.0164 13.6503 15.3893 13.0034 11.821C12.4528 8.98646 11.4206 5.6743 8.59554 4.42834C6.64108 3.57694 4.62468 4.03379 2.77345 4.95787C2.20569 5.23129 1.71364 5.4874 1.19061 5.70545C0.825871 5.84735 -0.00683951 6.19344 4.23972e-05 5.59816C0.0378929 5.11362 0.337255 4.62216 0.674469 4.08224C1.06674 3.48695 1.5175 2.92281 2.013 2.40712C3.55799 0.749312 5.8531 -0.264758 8.11381 0.0605751C11.9401 0.617794 14.483 4.2103 15.6839 7.66436C16.6061 10.2705 16.9708 13.0254 17.2358 15.7804C17.487 18.3761 17.6349 20.9892 17.8723 23.5884C18.0237 24.9209 18.1958 27.1947 19.6651 27.5962C20.9658 27.9284 22.817 26.8348 24.0661 26.281C27.3659 24.734 30.9273 23.6749 34.561 23.3842C36.4673 23.2423 38.4183 23.2907 40.2798 23.7372C44.0167 24.5713 46.9862 27.4162 47 31.4102L46.9966 31.4171Z" fill="#2A2A2A"/>
<path d="M39.6366 45.6591C39.6366 47.6734 38.0125 49.3104 36.0064 49.3104C34.0004 49.3104 32.3762 47.6769 32.3762 45.6591C32.3762 45.178 32.4691 44.7177 32.6377 44.2989C33.1745 42.9561 34.4786 42.0078 36.0064 42.0078C36.908 42.0078 37.7338 42.34 38.3669 42.8868C39.1411 43.5548 39.6332 44.5516 39.6332 45.6591H39.6366Z" fill="#2A2A2A"/>
<path d="M29.489 45.6591C29.489 47.6734 27.8649 49.3104 25.8588 49.3104C23.8528 49.3104 22.2286 47.6769 22.2286 45.6591C22.2286 45.1573 22.3284 44.6796 22.5108 44.247C23.0579 42.9318 24.3517 42.0078 25.8588 42.0078C27.4451 42.0078 28.794 43.0322 29.286 44.4581C29.4168 44.8354 29.489 45.2369 29.489 45.6591Z" fill="#2A2A2A"/>
</svg>
