<svg width="33" height="32" viewBox="0 0 33 32" fill="none" xmlns="http://www.w3.org/2000/svg">
<path d="M22.7976 7.76C21.8864 6.71937 21.3841 5.3832 21.3843 4H17.2643V20.5333C17.2332 21.4283 16.8556 22.2761 16.2113 22.898C15.5671 23.5199 14.7064 23.8672 13.8109 23.8667C11.9176 23.8667 10.3443 22.32 10.3443 20.4C10.3443 18.1067 12.5576 16.3867 14.8376 17.0933V12.88C10.2376 12.2667 6.21094 15.84 6.21094 20.4C6.21094 24.84 9.89094 28 13.7976 28C17.9843 28 21.3843 24.6 21.3843 20.4V12.0133C23.0549 13.2131 25.0608 13.8569 27.1176 13.8533V9.73333C27.1176 9.73333 24.6109 9.85333 22.7976 7.76Z" fill="white"/>
</svg>
