<svg width="48" height="48" viewBox="0 0 48 48" fill="none" xmlns="http://www.w3.org/2000/svg">
<path d="M7.43986 5.57395L8.53986 9.29995H37.8479C41.5279 9.29995 44.3379 12.7339 43.2779 16.3199L39.9679 27.5199C39.2639 29.9059 37.0259 31.4999 34.5379 31.4999H16.2259C13.7379 31.4999 11.5019 29.9059 10.7959 27.5199L4.56186 6.42395C4.5001 6.23343 4.47713 6.03248 4.49428 5.83294C4.51144 5.6334 4.56838 5.43931 4.66175 5.26213C4.75511 5.08495 4.88302 4.92826 5.03791 4.80131C5.19281 4.67435 5.37156 4.5797 5.56363 4.52294C5.75569 4.46617 5.95717 4.44844 6.1562 4.4708C6.35522 4.49315 6.54776 4.55514 6.72244 4.6531C6.89713 4.75105 7.05042 4.883 7.1733 5.04116C7.29617 5.19931 7.38812 5.38047 7.43986 5.57395ZM30.1819 17.8799C30.408 17.5572 30.498 17.1583 30.4324 16.7697C30.3668 16.3811 30.1509 16.0339 29.8314 15.8032C29.5119 15.5725 29.1144 15.4768 28.7249 15.5368C28.3354 15.5969 27.9851 15.8078 27.7499 16.124L24.3239 20.8659L23.1259 19.4979C22.9978 19.344 22.8403 19.2173 22.6625 19.1252C22.4847 19.0331 22.2903 18.9775 22.0907 18.9617C21.8912 18.946 21.6904 18.9703 21.5004 19.0333C21.3104 19.0964 21.1349 19.1968 20.9843 19.3287C20.8336 19.4606 20.711 19.6214 20.6235 19.8014C20.5359 19.9815 20.4854 20.1773 20.4747 20.3772C20.464 20.5771 20.4935 20.7772 20.5614 20.9655C20.6292 21.1539 20.7341 21.3268 20.8699 21.4739L22.9379 23.8359C23.1306 24.0563 23.3706 24.2304 23.64 24.3453C23.9093 24.4602 24.2011 24.5128 24.4936 24.4994C24.7861 24.4859 25.0718 24.4067 25.3295 24.2676C25.5871 24.1285 25.8101 23.9331 25.9819 23.6959L30.1819 17.8799ZM16.9999 34.4999C15.8064 34.4999 14.6618 34.9741 13.8179 35.818C12.974 36.6619 12.4999 37.8065 12.4999 39C12.4999 40.1934 12.974 41.338 13.8179 42.1819C14.6618 43.0258 15.8064 43.5 16.9999 43.5C18.1933 43.5 19.3379 43.0258 20.1818 42.1819C21.0258 41.338 21.4999 40.1934 21.4999 39C21.4999 37.8065 21.0258 36.6619 20.1818 35.818C19.3379 34.9741 18.1933 34.4999 16.9999 34.4999ZM32.9999 34.4999C31.8064 34.4999 30.6618 34.9741 29.8179 35.818C28.974 36.6619 28.4999 37.8065 28.4999 39C28.4999 40.1934 28.974 41.338 29.8179 42.1819C30.6618 43.0258 31.8064 43.5 32.9999 43.5C34.1933 43.5 35.3379 43.0258 36.1818 42.1819C37.0258 41.338 37.4999 40.1934 37.4999 39C37.4999 37.8065 37.0258 36.6619 36.1818 35.818C35.3379 34.9741 34.1933 34.4999 32.9999 34.4999Z" fill="#FF8100"/>
</svg>
