<svg width="72" height="72" viewBox="0 0 72 72" fill="none" xmlns="http://www.w3.org/2000/svg">
<path d="M6.75 36C6.75 19.845 19.845 6.75 36 6.75C52.155 6.75 65.25 19.845 65.25 36C65.25 52.155 52.155 65.25 36 65.25C19.845 65.25 6.75 52.155 6.75 36ZM47.319 26.076C47.0794 25.9026 46.8079 25.7782 46.5201 25.7098C46.2323 25.6415 45.9339 25.6305 45.6419 25.6776C45.3499 25.7247 45.07 25.8289 44.8183 25.9842C44.5666 26.1396 44.348 26.3431 44.175 26.583L33.384 41.526C33.3179 41.6175 33.232 41.6929 33.1327 41.7466C33.0334 41.8003 32.9233 41.8308 32.8105 41.836C32.6978 41.8412 32.5853 41.8209 32.4815 41.7766C32.3777 41.7322 32.2852 41.665 32.211 41.58L27.693 36.42C27.5009 36.1898 27.2647 36.0003 26.9984 35.8627C26.732 35.725 26.4408 35.642 26.1419 35.6185C25.843 35.595 25.5424 35.6314 25.2578 35.7257C24.9732 35.82 24.7103 35.9703 24.4846 36.1676C24.2588 36.3649 24.0748 36.6054 23.9433 36.8749C23.8118 37.1443 23.7355 37.4373 23.7189 37.7367C23.7023 38.0361 23.7456 38.3358 23.8465 38.6181C23.9473 38.9005 24.1035 39.1599 24.306 39.381L28.824 44.544C29.344 45.1384 29.9914 45.6078 30.718 45.9173C31.4446 46.2267 32.2317 46.3683 33.0206 46.3314C33.8095 46.2945 34.5799 46.0801 35.2744 45.7041C35.969 45.3281 36.5697 44.8003 37.032 44.16L47.823 29.22C47.9965 28.9805 48.1212 28.7092 48.1898 28.4216C48.2584 28.1339 48.2696 27.8355 48.2228 27.5435C48.176 27.2515 48.072 26.9716 47.917 26.7198C47.7619 26.468 47.5587 26.2492 47.319 26.076Z" fill="#FF8100"/>
</svg>
