<svg width="48" height="48" viewBox="0 0 48 48" fill="none" xmlns="http://www.w3.org/2000/svg">
<path d="M24.2004 42.0001C23.6337 42.0001 23.1591 41.8081 22.7764 41.4241C22.3937 41.0401 22.2017 40.5654 22.2004 40.0001C22.2004 39.7668 22.2504 39.5248 22.3504 39.2741C22.4504 39.0234 22.6004 38.7988 22.8004 38.6001L31.3504 30.0501C31.5504 29.8501 31.6504 29.6081 31.6504 29.3241C31.6504 29.0401 31.5504 28.7988 31.3504 28.6001C31.1504 28.4014 30.9084 28.3094 30.6244 28.3241C30.3404 28.3388 30.0991 28.4474 29.9004 28.6501L21.4004 37.1501C21.2004 37.3501 20.9837 37.5001 20.7504 37.6001C20.5171 37.7001 20.2671 37.7501 20.0004 37.7501C19.4337 37.7501 18.9591 37.5581 18.5764 37.1741C18.1937 36.7901 18.0017 36.3161 18.0004 35.7521C18.0004 35.4188 18.0504 35.1434 18.1504 34.9261C18.2504 34.7088 18.3837 34.5174 18.5504 34.3521L27.1004 25.8001C27.3004 25.6001 27.4004 25.3668 27.4004 25.1001C27.4004 24.8334 27.3004 24.6001 27.1004 24.4001C26.9004 24.2001 26.6671 24.1001 26.4004 24.1001C26.1337 24.1001 25.9004 24.2001 25.7004 24.4001L17.1504 32.9001C16.9504 33.1001 16.7337 33.2501 16.5004 33.3501C16.2671 33.4501 16.0004 33.5001 15.7004 33.5001C15.1671 33.5001 14.7004 33.3001 14.3004 32.9001C13.9004 32.5001 13.7004 32.0334 13.7004 31.5001C13.7004 31.2334 13.7504 30.9834 13.8504 30.7501C13.9504 30.5168 14.1004 30.3001 14.3004 30.1001L22.8004 21.6001C23.0004 21.4001 23.1004 21.1581 23.1004 20.8741C23.1004 20.5901 23.0004 20.3488 22.8004 20.1501C22.6004 19.9514 22.3671 19.8514 22.1004 19.8501C21.8337 19.8488 21.6004 19.9488 21.4004 20.1501L12.9004 28.7001C12.7337 28.8668 12.5337 29.0001 12.3004 29.1001C12.0671 29.2001 11.7837 29.2501 11.4504 29.2501C10.8837 29.2501 10.4091 29.0581 10.0264 28.6741C9.64372 28.2901 9.45172 27.8154 9.45039 27.2501C9.45039 26.9834 9.50039 26.7334 9.60039 26.5001C9.70039 26.2668 9.85039 26.0501 10.0504 25.8501L19.8504 16.0501C20.2171 15.6834 20.6757 15.5168 21.2264 15.5501C21.7771 15.5834 22.2351 15.7834 22.6004 16.1501L28.7004 22.2501C29.0671 22.6168 29.5004 22.9088 30.0004 23.1261C30.5004 23.3434 31.0004 23.4514 31.5004 23.4501C32.5671 23.4501 33.5004 23.0754 34.3004 22.3261C35.1004 21.5768 35.5004 20.6181 35.5004 19.4501C35.5004 18.9834 35.4171 18.5001 35.2504 18.0001C35.0837 17.5001 34.7837 17.0334 34.3504 16.6001L27.5004 9.7501C27.1337 9.38343 26.8917 8.98343 26.7744 8.5501C26.6571 8.11676 26.7157 7.7001 26.9504 7.3001C27.2504 6.8001 27.6337 6.43343 28.1004 6.2001C28.5671 5.96676 29.0837 5.8501 29.6504 5.8501C30.3504 5.8501 31.0671 6.01676 31.8004 6.3501C32.5337 6.68343 33.2004 7.1501 33.8004 7.7501L42.2504 16.2501C42.8504 16.8501 43.2924 17.5168 43.5764 18.2501C43.8604 18.9834 44.0017 19.8334 44.0004 20.8001C44.0004 21.4668 43.8504 22.1421 43.5504 22.8261C43.2504 23.5101 42.8171 24.1348 42.2504 24.7001L25.6004 41.4001C25.3337 41.6668 25.1004 41.8334 24.9004 41.9001C24.7004 41.9668 24.4671 42.0001 24.2004 42.0001ZM5.80039 24.2501C5.16706 23.7834 4.69239 23.2254 4.37639 22.5761C4.06039 21.9268 3.90172 21.2348 3.90039 20.5001C3.90039 19.7334 4.05906 18.9834 4.37639 18.2501C4.69372 17.5168 5.15172 16.8501 5.75039 16.2501L14.2004 7.7501C14.7671 7.18343 15.3924 6.7501 16.0764 6.4501C16.7604 6.1501 17.4851 6.0001 18.2504 6.0001C19.0837 6.0001 19.8924 6.1501 20.6764 6.4501C21.4604 6.7501 22.1351 7.18343 22.7004 7.7501L32.9504 18.0001C33.1171 18.1668 33.2591 18.3754 33.3764 18.6261C33.4937 18.8768 33.5517 19.1348 33.5504 19.4001C33.5504 19.9668 33.3591 20.4421 32.9764 20.8261C32.5937 21.2101 32.1184 21.4014 31.5504 21.4001C31.2837 21.4001 31.0257 21.3421 30.7764 21.2261C30.5271 21.1101 30.3184 20.9681 30.1504 20.8001L24.0004 14.7001C23.2337 13.9334 22.2924 13.5501 21.1764 13.5501C20.0604 13.5501 19.1184 13.9334 18.3504 14.7001L8.95039 24.1001C8.51706 24.5334 8.00906 24.7588 7.42639 24.7761C6.84372 24.7934 6.30172 24.6181 5.80039 24.2501Z" fill="#FF8100"/>
</svg>
