<svg width="48" height="48" viewBox="0 0 48 48" fill="none" xmlns="http://www.w3.org/2000/svg">
<path d="M37.0597 25.0599C37.3406 24.7786 37.4984 24.3974 37.4984 23.9999C37.4984 23.6024 37.3406 23.2212 37.0597 22.9399L25.0597 10.9399C24.7785 10.659 24.3972 10.5012 23.9997 10.5012C23.6022 10.5012 23.221 10.659 22.9397 10.9399L10.9397 22.9399C10.6588 23.2212 10.501 23.6024 10.501 23.9999C10.501 24.3974 10.6588 24.7786 10.9397 25.0599H20.8177L10.9377 34.9399C10.6568 35.2211 10.499 35.6024 10.499 35.9999C10.499 36.3974 10.6568 36.7787 10.9377 37.0599H37.0597C37.3406 36.7787 37.4984 36.3974 37.4984 35.9999C37.4984 35.6024 37.3406 35.2211 37.0597 34.9399L27.1817 25.0599H37.0597Z" fill="#FF8100"/>
</svg>
